# xmcd
#
# Track frame offsets:
#	150
#	11102
#	25921
#	37193
#	48404
#	62526
#	75513
#	89083
#	106330
#	116900
#	127411
#	143086
#	154616
#	165822
#	177576
#
# Disc length: 2519 seconds
#
# Revision: 0
# Processed by: cddbd v1.5.2PL0 Copyright (c) Steve Scherf et al.
# Submitted via: EasyCDDAExtractor 11.1.0.1
#
DISCID=cb09d50f
DTITLE=Kenny Rogers - Kenny rogers Special Edition
DYEAR=2008
DGENRE=country
TTITLE0=Always leaving always gone
TTITLE1=Church without a name
TTITLE2=Girl get a hold of yourself
TTITLE3=Hurry love
TTITLE4=Loser
TTITLE5=Run thru your mind
TTITLE6=Shine on Ruby Mountain
TTITLE7=Something's burning
TTITLE8=Trying just as hard
TTITLE9=We all got to help each other
TTITLE10=Tulsa turnaround
TTITLE11=Poem for my little lady
TTITLE12=If wishes were horses
TTITLE13=I justs want to give my love to you
TTITLE14=Calico silver
EXTD=
EXTT0=
EXTT1=
EXTT2=
EXTT3=
EXTT4=
EXTT5=
EXTT6=
EXTT7=
EXTT8=
EXTT9=
EXTT10=
EXTT11=
EXTT12=
EXTT13=
EXTT14=
PLAYORDER=
